<svg width="120" height="25" viewBox="0 0 120 25" fill="none" xmlns="http://www.w3.org/2000/svg">
<path d="M51.4866 15.8115L54.2779 2.77036H57.0256L53.3983 19.6139H49.6621L46.9798 6.0672L44.2975 19.6139H40.5613L36.9268 2.7829H39.6744L42.4657 15.824L45.1262 2.7829H48.8189L51.4866 15.8115ZM65.2901 19.6139H63.1094L62.9022 18.7782C61.953 19.4859 60.8461 19.8632 59.7147 19.8646C57.7557 19.8646 56.9234 18.3227 56.9234 16.2001C56.9234 13.693 57.8684 12.7361 60.0418 12.7361H62.6151V11.4366C62.6151 10.0744 62.2843 9.59386 60.5725 9.59386C59.5741 9.60517 58.5792 9.73257 57.6031 9.9741L57.2723 7.6216C58.468 7.24118 59.7026 7.04586 60.9432 7.04079C64.3087 7.04079 65.3046 8.40716 65.3046 11.4909L65.2901 19.6139ZM62.6078 14.9632H60.6306C59.7511 14.9632 59.5076 15.2432 59.5076 16.1792C59.5076 17.0149 59.7511 17.4327 60.5979 17.4327C61.3066 17.4198 62.0016 17.2029 62.6187 16.8018L62.6078 14.9632ZM72.8051 19.6143L71.3768 24.5951H68.8326L70.1701 19.6143H69.2215L65.8378 7.30445H68.5855L71.0242 16.6559L73.4884 7.30445H76.2361L72.8051 19.6143ZM85.9736 15.5064C85.9736 18.235 84.9196 19.8563 82.4336 19.8563C81.4737 19.8439 80.517 19.725 79.5769 19.5011V24.5821L76.8947 25V7.2915H79.0281L79.2898 8.32777C80.2687 7.49016 81.4569 7.03873 82.6772 7.04078C84.8324 7.04078 85.9736 8.50744 85.9736 11.3112V15.5064ZM79.5769 16.8979C80.3565 17.0984 81.1518 17.2092 81.9503 17.228C82.917 17.228 83.2914 16.6973 83.2914 15.5816V11.2569C83.2914 10.2457 82.9643 9.68996 81.9721 9.68996C81.0851 9.72676 80.2375 10.1201 79.5769 10.8014V16.8979ZM91.9088 19.8563C88.2379 19.8563 87.253 17.5247 87.253 15.0176V11.892C87.253 9.38493 88.2416 7.04079 91.9124 7.04079C95.5833 7.04079 96.5719 9.36404 96.5719 11.892V15.0176C96.5682 17.5247 95.5796 19.8563 91.9088 19.8563ZM91.9088 9.66907C90.4804 9.66907 89.9316 10.4003 89.9316 11.7917V15.1011C89.9316 16.4926 90.4804 17.228 91.9088 17.228C93.3372 17.228 93.886 16.4926 93.886 15.1011V11.7917C93.886 10.4212 93.3372 9.66907 91.9088 9.66907ZM98.1965 5.54906V1.9848H100.875V5.54906H98.1965ZM98.1965 19.6014V7.2915H100.875V19.6139L98.1965 19.6014ZM109.423 19.6139V11.0104C109.423 10.3502 109.183 10.0242 108.565 10.0242C107.947 10.0242 106.748 10.4797 105.774 11.0605V19.6139H103.091V7.2915H105.138L105.399 8.32777C106.736 7.56108 108.196 7.12278 109.688 7.04079C111.469 7.04079 112.105 8.48237 112.105 10.6803V19.6139H109.423ZM119.869 19.3761C119.113 19.6798 118.319 19.8421 117.518 19.8567C115.559 19.8567 114.57 18.7953 114.57 16.5933V9.7447H112.967V7.29192H114.57V4.23743L117.252 3.81958V7.30445H120L119.825 9.75723H117.252V16.1921C117.199 16.6576 117.444 17.0999 117.833 17.2426C117.957 17.2886 118.09 17.3011 118.219 17.2785C118.674 17.2613 119.125 17.1756 119.56 17.0237L119.869 19.3761Z" fill="black"/>
<path d="M30.0137 0L26.2666 7.46281L22.5194 0H30.0137ZM10.0058 4.98077H7.50525L13.7566 17.4327L11.2561 22.4135L0 0H12.5063L18.7613 12.4519L20.0116 9.96155L15.0069 0H20.0116L22.5121 4.98077L25.0127 9.96155L18.7613 22.4135L10.0058 4.98077Z" fill="#14C6CB"/>
</svg>
