<svg width="90" height="33" viewBox="0 0 90 33" fill="none" xmlns="http://www.w3.org/2000/svg">
<path d="M23.0144 6.89633L11.51 -1.86798V4.19656L23.0144 12.9223V6.89509V6.89633Z" fill="#FF6492"/>
<path d="M23.0148 12.9222L19.5635 15.566L11.5076 9.44043L6.90489 12.9272L3.45264 10.4777L11.5095 4.19653L23.0148 12.9222Z" fill="#141446"/>
<path d="M6.90489 12.9272L3.45264 10.4777V15.566L6.90489 12.9272Z" fill="#A14474"/>
<path d="M0 24.2357L11.5072 15.566L23.0144 24.2357L11.5072 33L0 24.2357Z" fill="#141446"/>
<path d="M23.0143 18.2184L11.5071 9.34576V15.566L23.0143 24.2356V18.2184Z" fill="#FF6492"/>
<path d="M3.45225 15.566V10.4778L11.5091 4.19656V-1.86798L0 6.89633V24.2357L11.5072 15.566V9.34581L3.45225 15.566Z" fill="#7A77FF"/>
<path d="M30.1538 16.348C30.1538 11.1054 33.3206 7.02707 37.3106 7.02707C39.8713 7.02707 41.8526 8.66586 43.0087 11.1764L40.9725 13.2884C40.0904 11.6496 38.9627 10.5575 37.34 10.5575C34.8618 10.5575 33.1006 13.1066 33.1006 16.3455C33.1006 19.658 34.8618 22.1685 37.34 22.1685C38.9362 22.1685 40.0648 21.115 40.9725 19.4762L43.0097 21.5521C41.826 24.0626 39.8419 25.7014 37.3106 25.7014C33.3206 25.7039 30.1538 21.6255 30.1538 16.348ZM45.5144 17.8038V7.43054H48.3768V18.0952C48.3768 20.6057 49.7245 22.171 51.4326 22.171C53.0848 22.171 54.4059 20.6057 54.4059 18.0952V7.4293H57.2967V17.805C57.2967 22.6467 54.7359 25.7039 51.4345 25.7039C48.0742 25.7039 45.5144 22.6467 45.5144 17.805V17.8038ZM74.834 16.3829C74.834 21.6978 72.0532 25.7039 68.2263 25.7039C66.2441 25.7039 64.5094 24.6491 63.4918 22.8285V25.3041H60.7945V-2H63.6853V9.61353C64.7048 7.97598 66.3276 7.02956 68.1997 7.02956C72.0532 7.02707 74.833 11.068 74.833 16.3829H74.834ZM71.8597 16.348C71.8597 12.8886 70.0435 10.5238 67.7293 10.5238C65.6931 10.5238 63.6549 12.3444 63.6549 16.3854C63.6549 20.4624 65.7196 22.2096 67.7293 22.2096C70.07 22.2096 71.8597 19.8062 71.8597 16.348ZM89.7811 17.622H79.705C80.092 20.5708 81.7973 22.3179 84.1095 22.3179C85.6792 22.3179 86.9168 21.516 88.0455 20.2072L89.4235 22.8285C87.9914 24.6117 86.1742 25.7039 84.027 25.7039C79.8435 25.7039 76.7593 21.6629 76.7593 16.3829C76.7593 11.1415 79.8141 7.02707 83.752 7.02707C87.3579 7.02707 90.0002 10.5213 90.0002 15.2173C90.0002 16.2011 89.8626 17.15 89.7811 17.622ZM79.761 14.6358H87.1113C87.0553 11.8314 85.4876 10.2661 83.6429 10.2661C81.7423 10.2685 80.2001 11.9783 79.761 14.637V14.6358Z" fill="black"/>
</svg>
