<svg width="110" height="40" viewBox="0 0 110 40" fill="none" xmlns="http://www.w3.org/2000/svg">
<path d="M46.7835 29.905V21.4573C46.7835 19.3876 45.9952 17.4868 44.4489 17.4868C42.9329 17.4868 42.0233 19.3876 42.0233 21.4573V29.905H39.2036V14.0655H41.8111L42.0233 16.0085C42.6297 14.4034 43.9335 13.8121 45.025 13.8121C46.3894 13.8121 47.7538 14.5724 48.3905 16.7688C49.391 14.5301 50.7251 13.8965 52.1805 13.8965C55.3944 13.8965 57.0013 16.642 57.0013 21.415V29.9472H54.1816V21.3728C54.1816 19.3031 53.5752 17.5291 52.0289 17.5291C50.5129 17.5291 49.573 19.3453 49.573 21.4573V29.905H46.7835ZM67.9164 14.1077H70.6149V29.905H67.977L67.8254 27.5819C67.1887 29.4404 65.3999 30.3274 64.1568 30.3696C60.7913 30.4118 58.305 27.4974 58.305 21.9641C58.305 16.5727 60.8579 13.7039 64.1133 13.685L64.2174 13.6853C65.7334 13.6853 67.1887 14.6991 67.8254 16.2619L67.9164 14.1077ZM61.1248 21.9641C61.1248 24.9631 62.6104 26.7793 64.4903 26.7793C68.917 26.7793 68.917 17.1912 64.4903 17.1912C62.6104 17.1912 61.1248 18.9652 61.1248 21.9641ZM75.2235 14.1077V22.3865C75.2235 24.7941 76.1634 26.6104 77.9522 26.6104C79.6805 26.6104 80.8629 24.5829 80.8629 22.1753V14.1077H83.6523V29.9472H81.1358L80.9539 27.7931C79.7714 29.3981 78.7102 30.1584 77.1033 30.1584C74.3745 30.1584 72.4037 27.2862 72.4037 22.3865V14.1077H75.2235ZM90.0801 9.63044V14.1077H93.2031V17.4868H90.0498V24.3295C90.0498 25.8501 90.6562 26.5681 91.5355 26.5681C91.9599 26.5681 92.4754 26.3569 92.8999 26.1035L93.6882 29.4404C92.8695 29.905 92.2025 30.0739 91.3536 30.1162C88.8977 30.2429 87.2907 28.2999 87.2907 24.3295V17.4868H85.1683V14.1077H87.2907V10.0528L90.0801 9.63044ZM98.3574 9.63044C98.3574 12.6716 95.0526 12.6716 95.0526 9.63044C95.0526 6.58925 98.3574 6.58925 98.3574 9.63044ZM95.2951 14.0233V29.905H98.1149V14.0233H95.2951ZM110 27.8775C108.696 29.6516 107.302 30.3696 105.634 30.3696C102.329 30.3696 99.6005 27.6241 99.6005 22.0064C99.6005 16.3886 102.329 13.6431 105.634 13.6431C107.241 13.6431 108.484 14.2767 109.727 15.9662L107.969 18.5428C107.302 17.698 106.483 17.2756 105.695 17.2756C103.815 17.2756 102.42 19.2186 102.42 21.9641C102.42 24.9631 103.906 26.5681 105.634 26.5681C106.544 26.5681 107.423 26.2302 108.12 25.2587L110 27.8775Z" fill="#4E5E9E"/>
<path d="M14.3716 40C6.4581 40 0 31.0032 0 19.9789C0 8.95459 6.4581 0 14.3716 0C16.2817 0 18.1312 0.506864 19.8897 1.52059C20.3749 1.81626 20.6174 2.6188 20.4052 3.29461C20.1929 3.97043 19.6169 4.30834 19.1318 4.01267C17.6158 3.12566 16.0088 2.70327 14.3412 2.70327C7.48898 2.70327 1.91014 10.4752 1.91014 20.0211C1.91014 29.5671 7.48898 37.339 14.3412 37.339C21.1935 37.339 26.7723 29.5671 26.7723 20.0211C26.7723 17.9937 26.5298 15.9662 26.0143 14.0655C25.8324 13.3474 26.075 12.5871 26.5904 12.3337C27.1058 12.0803 27.6516 12.4182 27.8335 13.1362C28.4096 15.3326 28.7129 17.6558 28.7129 20.0211C28.7431 31.0454 22.285 40 14.3716 40Z" fill="#4E5E9E"/>
<path d="M20.6475 17.9515L22.4667 28.4266H19.6772L18.4341 21.2038L20.6475 17.9515ZM24.0433 7.1806L23.255 13.263L22.497 12.207L14.3713 24.5407L10.5813 18.754L8.91373 28.4266H6.09399L9.12597 10.9821L14.3713 18.5428L20.5262 9.46149L19.7379 8.40552L24.0433 7.1806Z" fill="#FDB933"/>
</svg>
