<svg width="110" height="40" viewBox="0 0 110 40" fill="none" xmlns="http://www.w3.org/2000/svg">
<path d="M37.5394 26.0981C36.0255 26.0981 34.4836 25.3269 33.5181 23.8153V31.9812H30.4858V11.8224H33.2277L33.3323 14.0399C34.2728 12.3359 35.9429 11.4359 37.5364 11.4359C40.5922 11.4359 42.8432 14.5879 42.8432 18.767C42.8432 22.9461 40.5952 26.0999 37.5394 26.0981ZM36.6004 14.2032C34.8241 14.2032 33.3883 15.9071 33.3883 18.7688C33.3883 21.6305 34.8241 23.338 36.6004 23.338C38.3767 23.338 39.8124 21.6341 39.8124 18.7724C39.8124 15.9394 38.4052 14.2374 36.6536 14.2037L36.6004 14.2032ZM54.2718 25.7152L54.1672 23.4977C53.2267 25.2017 51.5551 26.1017 49.9616 26.0999C46.9058 26.0999 44.6549 22.9497 44.6549 18.7706C44.6549 14.5915 46.9014 11.4395 49.9616 11.4413C51.5551 11.4413 53.2267 12.3486 54.1672 14.0453L54.2718 11.8278H57.0196V25.7152H54.2718ZM50.9035 14.205C49.1273 14.205 47.6915 15.9089 47.69 18.7706C47.6885 21.6323 49.1258 23.338 50.9021 23.338C52.6784 23.338 54.1156 21.6341 54.1156 18.7724C54.1156 15.9107 52.6798 14.205 50.9035 14.205ZM67.6139 25.717V18.0339C67.6139 15.3337 66.8577 14.4336 65.4735 14.4336C64.0363 14.4336 62.4693 16.0396 62.4693 17.9685V25.717H59.4386V11.8278H62.2084L62.3396 14.401C63.0973 12.6317 64.7939 11.4431 66.5186 11.4431C69.5214 11.4431 70.6461 14.0163 70.6461 17.455V25.7188L67.6139 25.717ZM81.7505 25.7207L81.6458 23.5014C80.7053 25.2053 79.0337 26.1054 77.4417 26.1054C74.3859 26.1054 72.1349 22.9533 72.1349 18.7742C72.1349 14.5951 74.3815 11.4449 77.4417 11.4449C78.9556 11.4449 80.496 12.218 81.463 13.7277V6.43109H84.4938V25.7207H81.7505ZM78.3822 14.2104C76.6132 14.2104 75.1701 15.9144 75.1701 18.7742C75.1701 21.6341 76.6059 23.338 78.3822 23.338C80.1584 23.338 81.5942 21.6359 81.5942 18.7742C81.5942 15.9126 80.1629 14.2104 78.3822 14.2104ZM95.8767 25.7225L95.7721 23.505C94.8316 25.2089 93.16 26.1072 91.5665 26.1072C88.5107 26.1072 86.2597 22.957 86.2597 18.7761C86.2597 14.5951 88.5062 11.4467 91.5665 11.4467C93.16 11.4467 94.8316 12.3541 95.7721 14.0526L95.8767 11.8333H98.6185V25.7207L95.8767 25.7225ZM92.5084 14.2122C90.7395 14.2122 89.2964 15.9162 89.2949 18.7779C89.2934 21.6395 90.7321 23.338 92.5069 23.338C94.2818 23.338 95.7205 21.6341 95.7205 18.7724C95.7205 15.9394 94.3133 14.2463 92.5616 14.2128L92.5084 14.2122ZM105.33 26.1743C103.736 26.158 102.176 25.6133 100.812 24.5974L101.309 22.0261L101.462 22.1381C102.375 22.7933 103.698 23.5703 105.279 23.5703C106.48 23.5703 107.316 23.1203 107.316 21.9626C107.316 20.9663 106.453 20.6125 104.913 20.1624C102.145 19.4221 101.153 17.6219 101.153 15.6603C101.153 13.4737 102.537 11.4177 105.592 11.4177C107.447 11.4177 109.067 12.4139 109.425 12.6716L108.928 15.1159C107.942 14.3847 106.816 13.9855 105.665 13.9582C104.438 13.9582 103.837 14.4717 103.837 15.3083C103.837 16.2392 104.621 16.6584 105.821 17.0122C108.799 17.7834 110 19.4874 110 21.3528C110.006 24.3415 108.23 26.1743 105.33 26.1743Z" fill="#130754"/>
<path d="M5.70328 2.36447H9.25437V11.4413H5.70328V2.36447ZM5.70328 21.0098H9.25437V30.0866H5.70328V21.0098ZM0 9.82806H3.5511V40H0V9.82806ZM11.2901 28.4988H14.8412V37.5756H11.2901V28.4988ZM11.2901 9.83895H14.8412V18.9158H11.2901V9.83895ZM16.8754 0H20.4265V30.1719H16.8754V0Z" fill="#130754"/>
<path d="M9.25434 14.0906H5.70325V18.3732H9.25434V14.0906Z" fill="#FFCA00"/>
<path d="M14.8411 21.5652H11.29V25.8477H14.8411V21.5652Z" fill="#E70488"/>
</svg>
