<svg width="120" height="33" viewBox="0 0 120 33" fill="none" xmlns="http://www.w3.org/2000/svg">
<path d="M46.5318 24.9277H44.6924L43.1782 19.6987H36.7193L35.2051 24.9277H33.387L38.9473 6.06969H41.0022L46.5318 24.9277ZM37.3369 17.5594H42.551L39.9324 8.27007L37.3369 17.5594ZM52.1479 25.2149C51.1388 25.2273 50.1418 24.9234 49.2388 24.3282C48.3826 23.7774 47.6705 22.9014 47.1936 21.8127L48.6655 20.4127C48.9657 21.2661 49.4512 21.9826 50.0604 22.4708C50.7324 22.9863 51.5001 23.2433 52.2769 23.2127C53.0465 23.2127 53.6409 23.0196 54.0739 22.6283C54.2377 22.4977 54.3787 22.3223 54.4872 22.1139C54.5958 21.9057 54.6694 21.6692 54.7033 21.4203C54.7372 21.1715 54.7305 20.916 54.6836 20.6708C54.6368 20.4256 54.5509 20.1964 54.4317 19.9986C54.2355 19.6597 53.8641 19.4167 53.3177 19.2693L50.7204 18.5477C49.666 18.2631 48.9124 17.7871 48.4596 17.1198C48.0001 16.437 47.7557 15.5479 47.7766 14.6348C47.7729 13.8672 47.9511 13.1174 48.2865 12.4904C48.6555 11.8097 49.1557 11.272 49.7353 10.9329C50.433 10.5244 51.1905 10.3248 51.9536 10.3485C52.8947 10.3098 53.8271 10.5962 54.6588 11.1793C55.3801 11.7121 55.9558 12.5319 56.3038 13.5219L54.8531 14.7924C54.6417 14.0053 54.2176 13.3492 53.6621 12.9502C53.1391 12.5677 52.5515 12.3657 51.9536 12.3633C51.5004 12.3496 51.049 12.4461 50.6222 12.6479C50.2922 12.8042 50.0008 13.0765 49.7795 13.4356C49.584 13.763 49.4804 14.1698 49.4863 14.5867C49.4923 15.0036 49.6075 15.4049 49.8122 15.7223C50.0277 16.0747 50.431 16.3287 51.0224 16.4846L53.7276 17.229C54.7382 17.495 55.4438 17.9329 55.8439 18.5427C56.25 19.1591 56.4662 19.9542 56.45 20.771C56.4624 21.6126 56.2732 22.4378 55.9094 23.1288C55.5273 23.8281 55.002 24.3684 54.3952 24.6864C53.7597 25.017 53.0854 25.1957 52.4038 25.2151L52.1479 25.2149ZM65.7236 10.6406H67.5841L62.5009 27.3288C62.2849 28.1205 61.9822 28.8661 61.6025 29.5419C61.3189 30.0419 60.9479 30.4437 60.5212 30.7132C60.0881 30.9616 59.6195 31.0838 59.1474 31.0715C58.6903 31.0768 58.2356 30.9851 57.8006 30.7996C57.41 30.6326 57.0413 30.3867 56.7078 30.0704L57.183 28.0707C57.4508 28.3986 57.7627 28.6572 58.1027 28.833C58.4089 28.9947 58.735 29.0809 59.0647 29.0871C59.4455 29.0841 59.8161 28.9241 60.1248 28.6298C60.4282 28.3503 60.7078 27.8068 60.9637 26.9992L61.5948 24.915L60.5135 21.5154L57.0733 10.6559H59.0377L62.4124 21.5408L65.7236 10.6406ZM69.0714 24.9277V10.6406H70.5818L70.7319 13.8421L70.4509 13.5271C70.6498 12.8265 70.9684 12.1961 71.3821 11.6849C71.7688 11.2191 72.2287 10.872 72.7292 10.6686C73.2442 10.4598 73.7809 10.3545 74.3198 10.3561C75.0492 10.3438 75.7722 10.5433 76.4369 10.9405C77.066 11.3238 77.5962 11.9421 77.962 12.7191C78.3467 13.5203 78.5394 14.5366 78.5394 15.768V24.9151H76.8078V16.5836C76.8078 15.0033 76.5511 13.9022 76.0383 13.2806C75.5212 12.6601 74.8434 12.3277 74.1452 12.3532C73.6049 12.36 73.0725 12.5258 72.5865 12.8384C72.0501 13.1848 71.6026 13.7317 71.2994 14.4112C70.9608 15.1362 70.7915 16.1076 70.7915 17.3255V24.9252L69.0714 24.9277ZM85.0374 10.3573L85.2732 10.3561C85.9496 10.3387 86.6216 10.494 87.2536 10.8134C87.8114 11.1086 88.3169 11.5563 88.7351 12.1271C89.1627 12.7187 89.5067 13.4072 89.7503 14.1597L88.1074 15.1761C87.9234 14.3546 87.5583 13.6241 87.0587 13.0773C86.5293 12.5668 85.8842 12.3096 85.2289 12.3481C84.5751 12.3238 83.93 12.5469 83.3685 12.9909C82.8383 13.4366 82.4231 14.0841 82.178 14.8483C81.6311 16.7295 81.6311 18.8111 82.178 20.6921C82.4209 21.4616 82.8362 22.1142 83.3685 22.5622C83.8738 22.9618 84.4469 23.1824 85.0331 23.2049L85.2289 23.2051C85.7285 23.2205 86.2252 23.1038 86.6892 22.8621C87.0871 22.6473 87.4369 22.3039 87.7074 21.8635C87.9845 21.3949 88.1736 20.8463 88.2594 20.2628L89.8602 21.0047C89.6354 21.8343 89.2936 22.6006 88.8543 23.2635C88.4296 23.8908 87.9031 24.384 87.3147 24.7067C86.6667 25.0553 85.9714 25.2281 85.2718 25.2149C84.3271 25.2357 83.394 24.9301 82.5663 24.3282C81.7692 23.7348 81.1227 22.8449 80.706 21.7695C80.2638 20.522 80.0347 19.1616 80.0347 17.7842C80.0347 16.4069 80.2638 15.0464 80.706 13.7989C81.1234 12.724 81.77 11.8343 82.5663 11.2403C83.3257 10.6888 84.1736 10.3867 85.0374 10.3573ZM104.479 24.9277H102.033L100.671 19.9858H94.6783L93.314 24.9277H90.9336L96.3213 6.06969H99.0914L104.479 24.9277ZM95.3263 17.4984H100.019L97.6813 8.6995L95.3263 17.4984ZM105.777 6.06967H111.267C112.18 6.03962 113.086 6.28375 113.918 6.78365C114.63 7.2311 115.23 7.93601 115.65 8.81636C116.061 9.78265 116.277 10.8724 116.277 11.9809C116.277 13.0894 116.061 14.1792 115.65 15.1455C115.231 16.0277 114.63 16.7332 113.918 17.1782C113.17 17.63 112.361 17.8736 111.54 17.8956L108.086 17.8947V24.9227H105.777V6.06967ZM110.899 15.2701C111.926 15.2701 112.679 14.9889 113.16 14.4265C113.641 13.8641 113.883 13.0502 113.886 11.9847C113.886 10.9006 113.643 10.0766 113.16 9.51247C112.676 8.94848 111.923 8.66722 110.899 8.66895H108.086V15.2751L110.899 15.2701ZM120 6.06969V24.9277H117.691V6.06969H120Z" fill="#0C0928"/>
<path d="M20.2348 -2H6.2684C2.80646 -2 0 1.70621 0 6.27804V24.7219C0 29.2938 2.80646 33 6.2684 33H20.2348C23.6967 33 26.5031 29.2938 26.5031 24.7219V6.27804C26.5031 1.70621 23.6967 -2 20.2348 -2Z" fill="url(#paint0_linear_195_7)"/>
<path d="M7.76682 13.24L8.55562 11.8044L14.7586 17.7499L13.9698 19.1855L7.76682 13.24ZM11.7495 13.24L12.5383 11.8044L18.7413 17.7499L17.9525 19.1855L11.7495 13.24ZM13.256 4.4563C9.98271 4.4563 7.30816 7.08929 7.20248 10.3657L7.19924 10.6356H8.54602V10.5671C8.54602 8.17607 10.6625 6.2298 13.2598 6.2298C15.8572 6.2298 17.9737 8.17607 17.9737 10.5671V10.6356H19.3204V10.5671C19.3128 7.19786 16.5961 4.4563 13.256 4.4563ZM17.9602 20.4305C17.9602 22.8214 15.8438 24.7677 13.2444 24.7677C10.6451 24.7677 8.5306 22.8214 8.5306 20.4305V20.3619H7.18384V20.4305C7.18384 23.7997 9.90049 26.5413 13.2406 26.5413C16.5138 26.5413 19.1885 23.9083 19.2941 20.6319L19.2974 20.3619H17.9505L17.9602 20.4305Z" fill="white"/>
<defs>
<linearGradient id="paint0_linear_195_7" x1="2402.31" y1="359.795" x2="-228.709" y2="2351.9" gradientUnits="userSpaceOnUse">
<stop stop-color="#21D4FD"/>
<stop offset="0.03" stop-color="#27CDFC"/>
<stop offset="0.23" stop-color="#4E9CF4"/>
<stop offset="0.43" stop-color="#6E73EE"/>
<stop offset="0.61" stop-color="#8753E9"/>
<stop offset="0.77" stop-color="#993CE5"/>
<stop offset="0.9" stop-color="#A42EE3"/>
<stop offset="1" stop-color="#A829E2"/>
</linearGradient>
</defs>
</svg>
